<svg width="112" height="41" viewBox="0 0 112 41" fill="none" xmlns="http://www.w3.org/2000/svg">
<g clip-path="url(#clip0_717_191)">
<path d="M20.4615 11.8727C19.36 10.7631 18.049 9.88346 16.6047 9.28477C15.1604 8.68608 13.6115 8.3803 12.048 8.38519C5.49452 8.38519 0.160523 13.7192 0.160523 20.2772C0.160523 22.3727 0.709523 24.4217 1.74902 26.2217L0.0615234 32.3852L6.36602 30.7307C8.10896 31.6801 10.0618 32.1782 12.0465 32.1797H12.051C18.6045 32.1797 23.943 26.8457 23.943 20.2877C23.947 18.7247 23.6413 17.1765 23.0434 15.7324C22.4456 14.2883 21.5676 12.977 20.46 11.8742L20.4615 11.8727ZM12.051 30.1727C10.2798 30.173 8.54102 29.6969 7.01702 28.7942L6.65552 28.5782L2.91452 29.5577L3.91352 25.9112L3.67952 25.5362C2.68616 23.9623 2.16121 22.1383 2.16602 20.2772C2.1692 17.6553 3.21245 15.1418 5.06681 13.2883C6.92118 11.4348 9.43516 10.3927 12.057 10.3907C14.6955 10.3907 17.181 11.4227 19.0455 13.2872C19.9656 14.204 20.695 15.294 21.1913 16.4943C21.6877 17.6946 21.9413 18.9813 21.9375 20.2802C21.933 25.7357 17.499 30.1712 12.051 30.1712V30.1727ZM17.4705 22.7672C17.175 22.6172 15.7125 21.9002 15.441 21.8012C15.1695 21.7022 14.9715 21.6512 14.7705 21.9512C14.574 22.2467 14.0025 22.9172 13.8285 23.1182C13.6545 23.3147 13.482 23.3432 13.1865 23.1932C12.891 23.0432 11.9295 22.7297 10.7955 21.7172C9.91352 20.9297 9.31502 19.9547 9.14102 19.6592C8.96702 19.3637 9.12152 19.2002 9.27302 19.0547C9.40952 18.9227 9.56852 18.7082 9.71852 18.5342C9.86852 18.3602 9.91502 18.2387 10.014 18.0377C10.113 17.8412 10.065 17.6672 9.99002 17.5172C9.91502 17.3672 9.31952 15.9047 9.07652 15.3092C8.83802 14.7272 8.58902 14.8082 8.40602 14.7977C8.23202 14.7887 8.03552 14.7887 7.83902 14.7887C7.64252 14.7887 7.31852 14.8637 7.04702 15.1592C6.77552 15.4547 6.00602 16.1762 6.00602 17.6387C6.00602 19.1012 7.06952 20.5127 7.21952 20.7137C7.36952 20.9102 9.31502 23.9147 12.2955 25.2002C13.0035 25.5047 13.557 25.6877 13.9875 25.8287C14.7 26.0537 15.3465 26.0207 15.858 25.9457C16.4295 25.8617 17.616 25.2287 17.865 24.5342C18.114 23.8397 18.114 23.2457 18.039 23.1227C17.9685 22.9907 17.772 22.9172 17.472 22.7657L17.4705 22.7672Z" fill="white"/>
</g>
<g clip-path="url(#clip1_717_191)">
<path d="M56 31.3851C49.9247 31.3851 45 26.4604 45 20.3851C45 14.3098 49.9247 9.38513 56 9.38513C62.0753 9.38513 67 14.3098 67 20.3851C67 26.4604 62.0753 31.3851 56 31.3851Z" stroke="white" stroke-width="2"/>
<path d="M57.5681 16.6991C57.646 16.7012 57.7237 16.7099 57.8001 16.7251L57.9001 16.7401C59.4251 16.9291 60.6561 18.2971 60.6441 19.7891L60.6431 19.7901C60.6429 19.7968 60.6422 19.8035 60.6411 19.8101C60.6386 19.8471 60.6386 19.8841 60.6411 19.9211" stroke="white" stroke-linecap="round"/>
<path d="M57 19.3851C57.0253 19.3858 57.0506 19.3885 57.0754 19.3932L57.1079 19.3979C57.6037 19.4565 58.0039 19.8811 58 20.3442L57.9996 20.3445C57.9996 20.3466 57.9994 20.3486 57.999 20.3507C57.9982 20.3622 57.9982 20.3737 57.999 20.3851" stroke="white" stroke-linecap="round"/>
<path d="M58 14.3851C58.1267 14.3884 58.2528 14.4019 58.3771 14.4255L58.5396 14.4488C61.0184 14.7421 63.0194 16.865 62.9999 19.1803L62.9982 19.1818C62.9979 19.1922 62.9968 19.2026 62.995 19.2129C62.9909 19.2702 62.9909 19.3278 62.995 19.3851" stroke="white" stroke-linecap="round"/>
<path d="M60.2768 23.9213C60.2221 23.8763 60.1679 23.8306 60.1143 23.7841C59.8349 23.5407 59.5373 23.3164 59.2511 23.0992C59.1912 23.054 59.1314 23.0087 59.0716 22.9632C58.7036 22.684 58.3731 22.5468 58.0607 22.5468C57.6404 22.5468 57.2735 22.7997 56.9703 23.2973C56.8362 23.5168 56.6727 23.6242 56.4728 23.6242C56.3332 23.619 56.1964 23.5819 56.0718 23.5156C54.8848 22.931 54.0363 22.0361 53.5513 20.8549C53.3173 20.2821 53.3923 19.9099 53.8058 19.6056C54.0398 19.4338 54.4759 19.1128 54.4453 18.4983C54.4112 17.8003 52.9902 15.7003 52.3916 15.4617C52.1363 15.3604 51.8547 15.3596 51.5988 15.4593C50.9116 15.7099 50.4175 16.1513 50.171 16.7324C49.9325 17.2956 49.9438 17.9554 50.2028 18.6427C50.9491 20.6305 51.9975 22.363 53.3219 23.7925C54.6168 25.1921 56.2092 26.3375 58.0539 27.199C58.2197 27.2766 58.3946 27.3183 58.5219 27.3493L58.6298 27.378C58.6445 27.3824 58.6598 27.3848 58.6752 27.3851H58.69C59.5578 27.3851 60.5993 26.526 60.9197 25.5452C61.2002 24.6862 60.6879 24.2626 60.2768 23.9225V23.9213Z" fill="white"/>
</g>
<path d="M108.665 12.1021L90.9351 18.9391C89.7251 19.4251 89.7321 20.1001 90.7131 20.4011L95.2651 21.8211L105.797 15.1761C106.295 14.8731 106.75 15.0361 106.376 15.3681L97.8431 23.0691H97.8411L97.8431 23.0701L97.5291 27.7621C97.9891 27.7621 98.1921 27.5511 98.4501 27.3021L100.661 25.1521L105.26 28.5491C106.108 29.0161 106.717 28.7761 106.928 27.7641L109.947 13.5361C110.256 12.2971 109.474 11.7361 108.665 12.1021Z" fill="white"/>
<defs>
<clipPath id="clip0_717_191">
<rect width="24" height="24" fill="white" transform="translate(0 8.38513)"/>
</clipPath>
<clipPath id="clip1_717_191">
<rect width="24" height="24" fill="white" transform="translate(44 8.38513)"/>
</clipPath>
</defs>
</svg>
