<svg width="328" height="61" viewBox="0 0 328 61" fill="none" xmlns="http://www.w3.org/2000/svg">
<path d="M156.5 38L171.5 23" stroke="white" stroke-width="5" stroke-linecap="round" stroke-linejoin="round"/>
<path d="M157.75 25.5C158.44 25.5 159 24.9404 159 24.25C159 23.5596 158.44 23 157.75 23C157.06 23 156.5 23.5596 156.5 24.25C156.5 24.9404 157.06 25.5 157.75 25.5Z" fill="white" stroke="white" stroke-width="5" stroke-linecap="round" stroke-linejoin="round"/>
<path d="M170.25 38C170.94 38 171.5 37.4404 171.5 36.75C171.5 36.0596 170.94 35.5 170.25 35.5C169.56 35.5 169 36.0596 169 36.75C169 37.4404 169.56 38 170.25 38Z" fill="white" stroke="white" stroke-width="5" stroke-linecap="round" stroke-linejoin="round"/>
<path d="M164 53C176.426 53 186.5 42.9264 186.5 30.5C186.5 18.0736 176.426 8 164 8C151.574 8 141.5 18.0736 141.5 30.5C141.5 42.9264 151.574 53 164 53Z" stroke="white" stroke-width="5" stroke-linecap="round" stroke-linejoin="round"/>
</svg>
