<svg width="243" height="51" viewBox="0 0 243 51" fill="none" xmlns="http://www.w3.org/2000/svg">
<path d="M98.8379 40.5519C98.8379 40.1561 98.6868 39.8436 98.3848 39.6144C98.0827 39.38 97.6686 39.2628 97.1426 39.2628C96.6322 39.2628 96.2051 39.3957 95.8613 39.6613C95.5228 39.9269 95.3535 40.2394 95.3535 40.5988H93.916C93.916 39.8644 94.2233 39.2628 94.8379 38.7941C95.4525 38.3253 96.2207 38.091 97.1426 38.091C98.1322 38.091 98.903 38.3045 99.4551 38.7316C100.007 39.1535 100.283 39.7576 100.283 40.5441C100.283 40.9243 100.169 41.2733 99.9395 41.591C99.7103 41.9087 99.3848 42.1613 98.9629 42.3488C99.9473 42.6821 100.439 43.3384 100.439 44.3175C100.439 45.0936 100.14 45.7082 99.541 46.1613C98.9421 46.6144 98.1426 46.841 97.1426 46.841C96.1686 46.841 95.3639 46.604 94.7285 46.13C94.0983 45.6509 93.7832 45.005 93.7832 44.1925H95.2207C95.2207 44.604 95.403 44.9582 95.7676 45.255C96.1374 45.5467 96.5957 45.6925 97.1426 45.6925C97.6947 45.6925 98.14 45.5649 98.4785 45.3097C98.8171 45.0545 98.9863 44.7238 98.9863 44.3175C98.9863 43.8436 98.8431 43.505 98.5566 43.3019C98.2754 43.0936 97.8353 42.9894 97.2363 42.9894H95.791V41.7707H97.3613C98.3457 41.7446 98.8379 41.3384 98.8379 40.5519ZM102.447 46.6925V38.2394H105.744C106.869 38.2394 107.731 38.4373 108.33 38.8332C108.934 39.2238 109.236 39.7993 109.236 40.5597C109.236 40.9503 109.119 41.3045 108.885 41.6222C108.65 41.9347 108.304 42.1743 107.846 42.341C108.356 42.4608 108.765 42.6951 109.072 43.0441C109.385 43.3931 109.541 43.8097 109.541 44.2941C109.541 45.0701 109.255 45.6639 108.682 46.0753C108.114 46.4868 107.309 46.6925 106.268 46.6925H102.447ZM103.893 42.9816V45.5285H106.283C106.887 45.5285 107.338 45.4165 107.635 45.1925C107.937 44.9686 108.088 44.6535 108.088 44.2472C108.088 43.4035 107.468 42.9816 106.229 42.9816H103.893ZM103.893 41.8253H105.76C107.114 41.8253 107.791 41.4295 107.791 40.6378C107.791 39.8462 107.15 39.4373 105.869 39.4113H103.893V41.8253ZM111.072 42.3878C111.072 41.5597 111.234 40.8149 111.557 40.1535C111.885 39.492 112.338 38.9816 112.916 38.6222C113.499 38.2628 114.163 38.0832 114.908 38.0832C116.059 38.0832 116.989 38.4816 117.697 39.2785C118.411 40.0753 118.768 41.1352 118.768 42.4582V42.5597C118.768 43.3826 118.609 44.1222 118.291 44.7785C117.979 45.4295 117.528 45.9373 116.939 46.3019C116.356 46.6665 115.684 46.8488 114.924 46.8488C113.778 46.8488 112.848 46.4503 112.135 45.6535C111.426 44.8566 111.072 43.8019 111.072 42.4894V42.3878ZM112.525 42.5597C112.525 43.4972 112.742 44.2498 113.174 44.8175C113.611 45.3852 114.195 45.6691 114.924 45.6691C115.658 45.6691 116.242 45.3826 116.674 44.8097C117.106 44.2316 117.322 43.4243 117.322 42.3878C117.322 41.4608 117.101 40.7108 116.658 40.1378C116.221 39.5597 115.637 39.2707 114.908 39.2707C114.195 39.2707 113.619 39.5545 113.182 40.1222C112.744 40.6899 112.525 41.5024 112.525 42.5597ZM127.486 46.6925H126.041V43.0832H122.158V46.6925H120.705V38.2394H122.158V41.9035H126.041V38.2394H127.486V46.6925ZM129.432 42.3878C129.432 41.5597 129.593 40.8149 129.916 40.1535C130.244 39.492 130.697 38.9816 131.275 38.6222C131.859 38.2628 132.523 38.0832 133.268 38.0832C134.419 38.0832 135.348 38.4816 136.057 39.2785C136.77 40.0753 137.127 41.1352 137.127 42.4582V42.5597C137.127 43.3826 136.968 44.1222 136.65 44.7785C136.338 45.4295 135.887 45.9373 135.299 46.3019C134.715 46.6665 134.044 46.8488 133.283 46.8488C132.137 46.8488 131.208 46.4503 130.494 45.6535C129.786 44.8566 129.432 43.8019 129.432 42.4894V42.3878ZM130.885 42.5597C130.885 43.4972 131.101 44.2498 131.533 44.8175C131.971 45.3852 132.554 45.6691 133.283 45.6691C134.018 45.6691 134.601 45.3826 135.033 44.8097C135.465 44.2316 135.682 43.4243 135.682 42.3878C135.682 41.4608 135.46 40.7108 135.018 40.1378C134.58 39.5597 133.997 39.2707 133.268 39.2707C132.554 39.2707 131.979 39.5545 131.541 40.1222C131.104 40.6899 130.885 41.5024 130.885 42.5597ZM141.572 43.091H140.518V46.6925H139.064V38.2394H140.518V41.8175H141.463L144.307 38.2394H146.057L142.713 42.3019L146.338 46.6925H144.502L141.572 43.091ZM155.26 38.7238C156.322 38.7238 157.171 39.0806 157.807 39.7941C158.447 40.5024 158.768 41.4373 158.768 42.5988V42.7316C158.768 43.5285 158.614 44.242 158.307 44.8722C157.999 45.4972 157.557 45.9842 156.979 46.3332C156.406 46.6769 155.744 46.8488 154.994 46.8488C153.859 46.8488 152.945 46.4712 152.252 45.716C151.559 44.9556 151.213 43.9373 151.213 42.6613V41.9582C151.213 40.1821 151.541 38.7707 152.197 37.7238C152.859 36.6769 153.833 36.0389 155.119 35.8097C155.848 35.6795 156.34 35.5207 156.596 35.3332C156.851 35.1457 156.979 34.8878 156.979 34.5597H158.166C158.166 35.2108 158.018 35.7186 157.721 36.0832C157.429 36.4477 156.96 36.7056 156.314 36.8566L155.236 37.0988C154.377 37.3019 153.731 37.6457 153.299 38.13C152.872 38.6092 152.593 39.2498 152.463 40.0519C153.229 39.1665 154.161 38.7238 155.26 38.7238ZM154.979 39.9113C154.27 39.9113 153.708 40.1509 153.291 40.63C152.874 41.104 152.666 41.7628 152.666 42.6066V42.7316C152.666 43.6378 152.874 44.3566 153.291 44.8878C153.713 45.4139 154.281 45.6769 154.994 45.6769C155.713 45.6769 156.281 45.4113 156.697 44.88C157.114 44.3488 157.322 43.5727 157.322 42.5519C157.322 41.755 157.111 41.117 156.689 40.6378C156.273 40.1535 155.702 39.9113 154.979 39.9113ZM163.9 46.8488C162.755 46.8488 161.822 46.4738 161.104 45.7238C160.385 44.9686 160.025 43.9608 160.025 42.7003V42.4347C160.025 41.5962 160.184 40.8488 160.502 40.1925C160.825 39.5311 161.273 39.0155 161.846 38.6457C162.424 38.2707 163.049 38.0832 163.721 38.0832C164.82 38.0832 165.674 38.4451 166.283 39.1691C166.893 39.8931 167.197 40.9295 167.197 42.2785V42.88H161.471C161.492 43.7134 161.734 44.3878 162.197 44.9035C162.666 45.4139 163.26 45.6691 163.979 45.6691C164.489 45.6691 164.921 45.5649 165.275 45.3566C165.63 45.1483 165.939 44.8722 166.205 44.5285L167.088 45.216C166.38 46.3045 165.317 46.8488 163.9 46.8488ZM163.721 39.2707C163.137 39.2707 162.648 39.4842 162.252 39.9113C161.856 40.3332 161.611 40.9269 161.518 41.6925H165.752V41.5832C165.71 40.8488 165.512 40.2811 165.158 39.88C164.804 39.4738 164.325 39.2707 163.721 39.2707ZM172.268 45.6691C172.783 45.6691 173.234 45.5128 173.619 45.2003C174.005 44.8878 174.218 44.4972 174.26 44.0285H175.627C175.601 44.5128 175.434 44.9738 175.127 45.4113C174.82 45.8488 174.408 46.1977 173.893 46.4582C173.382 46.7186 172.84 46.8488 172.268 46.8488C171.117 46.8488 170.2 46.466 169.518 45.7003C168.84 44.9295 168.502 43.8774 168.502 42.5441V42.3019C168.502 41.479 168.653 40.7472 168.955 40.1066C169.257 39.466 169.689 38.9686 170.252 38.6144C170.82 38.2602 171.489 38.0832 172.26 38.0832C173.208 38.0832 173.994 38.367 174.619 38.9347C175.249 39.5024 175.585 40.2394 175.627 41.1457H174.26C174.218 40.5988 174.01 40.1509 173.635 39.8019C173.265 39.4477 172.807 39.2707 172.26 39.2707C171.525 39.2707 170.955 39.5363 170.549 40.0675C170.148 40.5936 169.947 41.3566 169.947 42.3566V42.63C169.947 43.604 170.148 44.354 170.549 44.88C170.95 45.4061 171.523 45.6691 172.268 45.6691ZM184.166 46.6925H182.721V39.4347H178.83V46.6925H177.377V38.2394H184.166V46.6925ZM193.416 38.2394V46.6925H191.963V39.4347H189.088L188.916 42.5988C188.822 44.0519 188.577 45.091 188.182 45.716C187.791 46.341 187.169 46.6665 186.314 46.6925H185.736V45.4191L186.15 45.3878C186.619 45.3358 186.955 45.0649 187.158 44.5753C187.361 44.0858 187.492 43.1795 187.549 41.8566L187.705 38.2394H193.416ZM200.955 46.6925C200.872 46.5259 200.804 46.229 200.752 45.8019C200.08 46.4998 199.278 46.8488 198.346 46.8488C197.512 46.8488 196.827 46.6144 196.291 46.1457C195.76 45.6717 195.494 45.0727 195.494 44.3488C195.494 43.4686 195.827 42.7863 196.494 42.3019C197.166 41.8123 198.109 41.5675 199.322 41.5675H200.729V40.9035C200.729 40.3983 200.577 39.9972 200.275 39.7003C199.973 39.3983 199.528 39.2472 198.939 39.2472C198.424 39.2472 197.992 39.3774 197.643 39.6378C197.294 39.8983 197.119 40.2134 197.119 40.5832H195.666C195.666 40.1613 195.814 39.755 196.111 39.3644C196.413 38.9686 196.82 38.6561 197.33 38.4269C197.846 38.1977 198.411 38.0832 199.025 38.0832C199.999 38.0832 200.762 38.328 201.314 38.8175C201.867 39.3019 202.153 39.9712 202.174 40.8253V44.716C202.174 45.492 202.273 46.1092 202.471 46.5675V46.6925H200.955ZM198.557 45.591C199.01 45.591 199.439 45.4738 199.846 45.2394C200.252 45.005 200.546 44.7003 200.729 44.3253V42.591H199.596C197.825 42.591 196.939 43.1092 196.939 44.1457C196.939 44.5988 197.09 44.953 197.393 45.2082C197.695 45.4634 198.083 45.591 198.557 45.591ZM210.596 39.4113H207.76V46.6925H206.314V39.4113H203.533V38.2394H210.596V39.4113ZM218.908 46.6925H217.463V43.0832H213.58V46.6925H212.127V38.2394H213.58V41.9035H217.463V38.2394H218.908V46.6925ZM222.814 41.1535H225.01C225.968 41.1639 226.726 41.4139 227.283 41.9035C227.84 42.3931 228.119 43.0571 228.119 43.8957C228.119 44.7394 227.833 45.4165 227.26 45.9269C226.687 46.4373 225.916 46.6925 224.947 46.6925H221.369V38.2394H222.814V41.1535ZM231.135 46.6925H229.682V38.2394H231.135V46.6925ZM222.814 42.3332V45.5128H224.963C225.505 45.5128 225.924 45.3748 226.221 45.0988C226.518 44.8175 226.666 44.4347 226.666 43.9503C226.666 43.4816 226.52 43.0988 226.229 42.8019C225.942 42.4998 225.538 42.3436 225.018 42.3332H222.814ZM239.127 38.2394H240.572V46.6925H239.127V40.5285L235.229 46.6925H233.783V38.2394H235.229V44.4113L239.127 38.2394ZM239.518 35.1613C239.518 35.7915 239.301 36.2993 238.869 36.6847C238.442 37.0649 237.88 37.255 237.182 37.255C236.484 37.255 235.919 37.0623 235.486 36.6769C235.054 36.2915 234.838 35.7863 234.838 35.1613H236.018C236.018 35.5259 236.117 35.8123 236.314 36.0207C236.512 36.2238 236.801 36.3253 237.182 36.3253C237.546 36.3253 237.83 36.2238 238.033 36.0207C238.242 35.8175 238.346 35.5311 238.346 35.1613H239.518Z" fill="#60AB84"/>
<path d="M62.2812 9.78009C62.2812 10.6082 62.0742 11.3426 61.6602 11.9832C61.2461 12.6238 60.6758 13.1356 59.9492 13.5184C60.7773 13.9168 61.4336 14.4676 61.918 15.1707C62.4023 15.866 62.6445 16.6863 62.6445 17.6317C62.6445 19.1473 62.1289 20.3465 61.0977 21.2293C60.0664 22.1043 58.6641 22.5418 56.8906 22.5418C55.1172 22.5418 53.7109 22.1004 52.6719 21.2176C51.6328 20.3348 51.1133 19.1395 51.1133 17.6317C51.1133 16.6863 51.3555 15.8621 51.8398 15.159C52.3242 14.4559 52.9766 13.909 53.7969 13.5184C53.0703 13.1356 52.5 12.6238 52.0859 11.9832C51.6797 11.3426 51.4766 10.6082 51.4766 9.78009C51.4766 8.32697 51.9609 7.17072 52.9297 6.31134C53.8984 5.44415 55.2148 5.01056 56.8789 5.01056C58.5352 5.01056 59.8477 5.44025 60.8164 6.29962C61.793 7.15118 62.2812 8.31134 62.2812 9.78009ZM59.2461 17.3856C59.2461 16.6434 59.0312 16.0496 58.6016 15.6043C58.1719 15.159 57.5938 14.9363 56.8672 14.9363C56.1484 14.9363 55.5742 15.159 55.1445 15.6043C54.7148 16.0418 54.5 16.6356 54.5 17.3856C54.5 18.1121 54.7109 18.6981 55.1328 19.1434C55.5547 19.5887 56.1406 19.8113 56.8906 19.8113C57.625 19.8113 58.1992 19.5965 58.6133 19.1668C59.0352 18.7371 59.2461 18.1434 59.2461 17.3856ZM58.8945 9.94415C58.8945 9.28009 58.7188 8.74884 58.3672 8.3504C58.0156 7.94415 57.5195 7.74103 56.8789 7.74103C56.2461 7.74103 55.7539 7.93634 55.4023 8.32697C55.0508 8.71759 54.875 9.25665 54.875 9.94415C54.875 10.6238 55.0508 11.1707 55.4023 11.5848C55.7539 11.9988 56.25 12.2059 56.8906 12.2059C57.5312 12.2059 58.0234 11.9988 58.3672 11.5848C58.7188 11.1707 58.8945 10.6238 58.8945 9.94415ZM71.2109 15.3699C71.2109 13.5809 71.4492 11.8777 71.9258 10.2606C72.4023 8.64337 73.1055 7.21368 74.0352 5.9715C74.9648 4.7215 75.9727 3.85431 77.0586 3.36993L77.7148 5.19806C76.5742 6.04181 75.6836 7.3465 75.043 9.11212C74.4023 10.8777 74.082 12.9402 74.082 15.2996V15.6629C74.082 18.0301 74.3984 20.1004 75.0312 21.8738C75.6641 23.6473 76.5586 24.9715 77.7148 25.8465L77.0586 27.6395C75.9961 27.1629 75.0039 26.3192 74.082 25.1082C73.168 23.9051 72.4688 22.5145 71.9844 20.9363C71.5 19.3582 71.2422 17.7098 71.2109 15.991V15.3699ZM90.4766 9.78009C90.4766 10.6082 90.2695 11.3426 89.8555 11.9832C89.4414 12.6238 88.8711 13.1356 88.1445 13.5184C88.9727 13.9168 89.6289 14.4676 90.1133 15.1707C90.5977 15.866 90.8398 16.6863 90.8398 17.6317C90.8398 19.1473 90.3242 20.3465 89.293 21.2293C88.2617 22.1043 86.8594 22.5418 85.0859 22.5418C83.3125 22.5418 81.9062 22.1004 80.8672 21.2176C79.8281 20.3348 79.3086 19.1395 79.3086 17.6317C79.3086 16.6863 79.5508 15.8621 80.0352 15.159C80.5195 14.4559 81.1719 13.909 81.9922 13.5184C81.2656 13.1356 80.6953 12.6238 80.2812 11.9832C79.875 11.3426 79.6719 10.6082 79.6719 9.78009C79.6719 8.32697 80.1562 7.17072 81.125 6.31134C82.0938 5.44415 83.4102 5.01056 85.0742 5.01056C86.7305 5.01056 88.043 5.44025 89.0117 6.29962C89.9883 7.15118 90.4766 8.31134 90.4766 9.78009ZM87.4414 17.3856C87.4414 16.6434 87.2266 16.0496 86.7969 15.6043C86.3672 15.159 85.7891 14.9363 85.0625 14.9363C84.3438 14.9363 83.7695 15.159 83.3398 15.6043C82.9102 16.0418 82.6953 16.6356 82.6953 17.3856C82.6953 18.1121 82.9062 18.6981 83.3281 19.1434C83.75 19.5887 84.3359 19.8113 85.0859 19.8113C85.8203 19.8113 86.3945 19.5965 86.8086 19.1668C87.2305 18.7371 87.4414 18.1434 87.4414 17.3856ZM87.0898 9.94415C87.0898 9.28009 86.9141 8.74884 86.5625 8.3504C86.2109 7.94415 85.7148 7.74103 85.0742 7.74103C84.4414 7.74103 83.9492 7.93634 83.5977 8.32697C83.2461 8.71759 83.0703 9.25665 83.0703 9.94415C83.0703 10.6238 83.2461 11.1707 83.5977 11.5848C83.9492 11.9988 84.4453 12.2059 85.0859 12.2059C85.7266 12.2059 86.2188 11.9988 86.5625 11.5848C86.9141 11.1707 87.0898 10.6238 87.0898 9.94415ZM104.621 15.2527C104.621 17.6121 104.133 19.4168 103.156 20.6668C102.18 21.9168 100.75 22.5418 98.8672 22.5418C97.0078 22.5418 95.5859 21.9285 94.6016 20.702C93.6172 19.4754 93.1133 17.7176 93.0898 15.4285V12.2879C93.0898 9.90509 93.582 8.0965 94.5664 6.86212C95.5586 5.62775 96.9844 5.01056 98.8438 5.01056C100.703 5.01056 102.125 5.62384 103.109 6.8504C104.094 8.06915 104.598 9.82306 104.621 12.1121V15.2527ZM101.234 11.8074C101.234 10.3934 101.039 9.36603 100.648 8.7254C100.266 8.07697 99.6641 7.75275 98.8438 7.75275C98.0469 7.75275 97.457 8.06134 97.0742 8.67853C96.6992 9.2879 96.5 10.2449 96.4766 11.5496V15.6981C96.4766 17.0887 96.6641 18.1238 97.0391 18.8035C97.4219 19.4754 98.0312 19.8113 98.8672 19.8113C99.6953 19.8113 100.293 19.4871 100.66 18.8387C101.027 18.1902 101.219 17.1981 101.234 15.8621V11.8074ZM118.402 15.2527C118.402 17.6121 117.914 19.4168 116.938 20.6668C115.961 21.9168 114.531 22.5418 112.648 22.5418C110.789 22.5418 109.367 21.9285 108.383 20.702C107.398 19.4754 106.895 17.7176 106.871 15.4285V12.2879C106.871 9.90509 107.363 8.0965 108.348 6.86212C109.34 5.62775 110.766 5.01056 112.625 5.01056C114.484 5.01056 115.906 5.62384 116.891 6.8504C117.875 8.06915 118.379 9.82306 118.402 12.1121V15.2527ZM115.016 11.8074C115.016 10.3934 114.82 9.36603 114.43 8.7254C114.047 8.07697 113.445 7.75275 112.625 7.75275C111.828 7.75275 111.238 8.06134 110.855 8.67853C110.48 9.2879 110.281 10.2449 110.258 11.5496V15.6981C110.258 17.0887 110.445 18.1238 110.82 18.8035C111.203 19.4754 111.812 19.8113 112.648 19.8113C113.477 19.8113 114.074 19.4871 114.441 18.8387C114.809 18.1902 115 17.1981 115.016 15.8621V11.8074ZM126.676 15.6395C126.676 17.4051 126.422 19.1043 125.914 20.7371C125.406 22.3699 124.676 23.8113 123.723 25.0613C122.77 26.3113 121.75 27.1707 120.664 27.6395L120.008 25.8465C121.117 25.0106 121.992 23.7215 122.633 21.9793C123.273 20.2371 123.605 18.2332 123.629 15.9676V15.3465C123.629 13.0106 123.309 10.952 122.668 9.17072C122.035 7.38947 121.148 6.05353 120.008 5.1629L120.664 3.36993C121.727 3.83087 122.727 4.66681 123.664 5.87775C124.609 7.08868 125.34 8.49884 125.855 10.1082C126.379 11.7176 126.652 13.3856 126.676 15.1121V15.6395ZM146.832 22.3074H135.137V19.9871L140.656 14.1043C141.414 13.2762 141.973 12.5535 142.332 11.9363C142.699 11.3192 142.883 10.7332 142.883 10.1785C142.883 9.42072 142.691 8.82697 142.309 8.39728C141.926 7.95978 141.379 7.74103 140.668 7.74103C139.902 7.74103 139.297 8.00665 138.852 8.5379C138.414 9.06134 138.195 9.75275 138.195 10.6121H134.797C134.797 9.57306 135.043 8.62384 135.535 7.76447C136.035 6.90509 136.738 6.23322 137.645 5.74884C138.551 5.25665 139.578 5.01056 140.727 5.01056C142.484 5.01056 143.848 5.43243 144.816 6.27618C145.793 7.11993 146.281 8.31134 146.281 9.8504C146.281 10.6942 146.062 11.5535 145.625 12.4285C145.188 13.3035 144.438 14.3231 143.375 15.4871L139.496 19.577H146.832V22.3074ZM152.363 12.2762H154.168C155.027 12.2762 155.664 12.0613 156.078 11.6317C156.492 11.202 156.699 10.6317 156.699 9.92072C156.699 9.23322 156.492 8.69806 156.078 8.31525C155.672 7.93243 155.109 7.74103 154.391 7.74103C153.742 7.74103 153.199 7.92072 152.762 8.28009C152.324 8.63165 152.105 9.09259 152.105 9.6629H148.719C148.719 8.77228 148.957 7.9754 149.434 7.27228C149.918 6.56134 150.59 6.00665 151.449 5.60822C152.316 5.20978 153.27 5.01056 154.309 5.01056C156.113 5.01056 157.527 5.44415 158.551 6.31134C159.574 7.17072 160.086 8.35822 160.086 9.87384C160.086 10.6551 159.848 11.3738 159.371 12.0301C158.895 12.6863 158.27 13.1902 157.496 13.5418C158.457 13.8856 159.172 14.4012 159.641 15.0887C160.117 15.7762 160.355 16.5887 160.355 17.5262C160.355 19.0418 159.801 20.2567 158.691 21.1707C157.59 22.0848 156.129 22.5418 154.309 22.5418C152.605 22.5418 151.211 22.0926 150.125 21.1942C149.047 20.2957 148.508 19.1082 148.508 17.6317H151.895C151.895 18.2723 152.133 18.7957 152.609 19.202C153.094 19.6082 153.688 19.8113 154.391 19.8113C155.195 19.8113 155.824 19.6004 156.277 19.1785C156.738 18.7488 156.969 18.1824 156.969 17.4793C156.969 15.7762 156.031 14.9246 154.156 14.9246H152.363V12.2762ZM172.719 15.8856H174.652V18.616H172.719V22.3074H169.332V18.616H162.336L162.184 16.4832L169.297 5.24493H172.719V15.8856ZM165.559 15.8856H169.332V9.86212L169.109 10.2488L165.559 15.8856ZM190.379 15.4871C189.496 16.3543 188.465 16.7879 187.285 16.7879C185.777 16.7879 184.57 16.2723 183.664 15.241C182.758 14.202 182.305 12.8035 182.305 11.0457C182.305 9.92853 182.547 8.90509 183.031 7.9754C183.523 7.0379 184.207 6.31134 185.082 5.79572C185.957 5.27228 186.941 5.01056 188.035 5.01056C189.16 5.01056 190.16 5.29181 191.035 5.85431C191.91 6.41681 192.59 7.2254 193.074 8.28009C193.559 9.33478 193.805 10.5418 193.812 11.9012V13.1551C193.812 15.9988 193.105 18.2332 191.691 19.8582C190.277 21.4832 188.273 22.3504 185.68 22.4598L184.848 22.4715V19.6473L185.598 19.6356C188.543 19.5027 190.137 18.1199 190.379 15.4871ZM188.117 14.1981C188.664 14.1981 189.133 14.0574 189.523 13.7762C189.922 13.4949 190.223 13.1551 190.426 12.7567V11.3621C190.426 10.2137 190.207 9.32306 189.77 8.69025C189.332 8.05743 188.746 7.74103 188.012 7.74103C187.332 7.74103 186.773 8.05353 186.336 8.67853C185.898 9.29572 185.68 10.0731 185.68 11.0106C185.68 11.9402 185.891 12.7059 186.312 13.3074C186.742 13.9012 187.344 14.1981 188.117 14.1981ZM196.742 13.9168L197.727 5.24493H207.289V8.06915H200.504L200.082 11.7371C200.887 11.3074 201.742 11.0926 202.648 11.0926C204.273 11.0926 205.547 11.5965 206.469 12.6043C207.391 13.6121 207.852 15.0223 207.852 16.8348C207.852 17.9363 207.617 18.9246 207.148 19.7996C206.688 20.6668 206.023 21.3426 205.156 21.827C204.289 22.3035 203.266 22.5418 202.086 22.5418C201.055 22.5418 200.098 22.3348 199.215 21.9207C198.332 21.4988 197.633 20.909 197.117 20.1512C196.609 19.3934 196.34 18.5301 196.309 17.5613H199.66C199.73 18.2723 199.977 18.827 200.398 19.2254C200.828 19.616 201.387 19.8113 202.074 19.8113C202.84 19.8113 203.43 19.5379 203.844 18.991C204.258 18.4363 204.465 17.6551 204.465 16.6473C204.465 15.6785 204.227 14.9363 203.75 14.4207C203.273 13.9051 202.598 13.6473 201.723 13.6473C200.918 13.6473 200.266 13.8582 199.766 14.2801L199.438 14.5848L196.742 13.9168ZM216.5 13.9168L217.484 5.24493H227.047V8.06915H220.262L219.84 11.7371C220.645 11.3074 221.5 11.0926 222.406 11.0926C224.031 11.0926 225.305 11.5965 226.227 12.6043C227.148 13.6121 227.609 15.0223 227.609 16.8348C227.609 17.9363 227.375 18.9246 226.906 19.7996C226.445 20.6668 225.781 21.3426 224.914 21.827C224.047 22.3035 223.023 22.5418 221.844 22.5418C220.812 22.5418 219.855 22.3348 218.973 21.9207C218.09 21.4988 217.391 20.909 216.875 20.1512C216.367 19.3934 216.098 18.5301 216.066 17.5613H219.418C219.488 18.2723 219.734 18.827 220.156 19.2254C220.586 19.616 221.145 19.8113 221.832 19.8113C222.598 19.8113 223.188 19.5379 223.602 18.991C224.016 18.4363 224.223 17.6551 224.223 16.6473C224.223 15.6785 223.984 14.9363 223.508 14.4207C223.031 13.9051 222.355 13.6473 221.48 13.6473C220.676 13.6473 220.023 13.8582 219.523 14.2801L219.195 14.5848L216.5 13.9168ZM241.262 15.2527C241.262 17.6121 240.773 19.4168 239.797 20.6668C238.82 21.9168 237.391 22.5418 235.508 22.5418C233.648 22.5418 232.227 21.9285 231.242 20.702C230.258 19.4754 229.754 17.7176 229.73 15.4285V12.2879C229.73 9.90509 230.223 8.0965 231.207 6.86212C232.199 5.62775 233.625 5.01056 235.484 5.01056C237.344 5.01056 238.766 5.62384 239.75 6.8504C240.734 8.06915 241.238 9.82306 241.262 12.1121V15.2527ZM237.875 11.8074C237.875 10.3934 237.68 9.36603 237.289 8.7254C236.906 8.07697 236.305 7.75275 235.484 7.75275C234.688 7.75275 234.098 8.06134 233.715 8.67853C233.34 9.2879 233.141 10.2449 233.117 11.5496V15.6981C233.117 17.0887 233.305 18.1238 233.68 18.8035C234.062 19.4754 234.672 19.8113 235.508 19.8113C236.336 19.8113 236.934 19.4871 237.301 18.8387C237.668 18.1902 237.859 17.1981 237.875 15.8621V11.8074Z" fill="#535554"/>
<path d="M43.041 6.87525L38.979 5.93825C38.538 5.83625 38.084 6.06725 37.905 6.48125L36.03 10.8562C35.866 11.2392 35.975 11.6882 36.3 11.9502L38.667 13.8872C37.261 16.8832 34.804 19.3752 31.745 20.8092L29.807 18.4422C29.541 18.1182 29.096 18.0082 28.713 18.1722L24.338 20.0472C23.92 20.2312 23.69 20.6842 23.791 21.1252L24.729 25.1872C24.827 25.6092 25.202 25.9142 25.643 25.9142C35.647 25.9142 43.768 17.8092 43.768 7.78925C43.768 7.35125 43.467 6.97225 43.041 6.87525Z" fill="#535554"/>
</svg>
