<svg width="120" height="120" viewBox="0 0 120 120" fill="none" xmlns="http://www.w3.org/2000/svg">
<g filter="url(#filter0_d_156_33)">
<path d="M91.974 44.323H84.7656C85.2832 43.2653 85.5656 42.0954 85.5656 40.8664C85.5656 36.545 82.0009 31.9529 75.3947 31.9529C74.334 31.9529 73.3037 32.1162 72.308 32.3976C72.7144 31.2828 72.9565 30.1976 72.9565 29.19C72.9565 22.4687 67.4877 17 60.7664 17C54.0451 17 48.5763 22.4687 48.5763 29.19C48.5763 30.2202 48.8292 31.3301 49.2523 32.4705C48.0283 32.0434 46.7482 31.7906 45.4199 31.7906C38.8137 31.7906 35.249 36.3826 35.249 40.7041C35.249 41.996 35.5589 43.224 36.1296 44.323H27.0341C22.7943 44.323 20.1465 47.1676 20.1465 51.4753V62.3655C20.1465 64.0224 21.4896 65.3655 23.1465 65.3655H23.79V92.4878C23.79 96.7965 27.8546 99.643 32.0885 99.6509H87.4135C91.6533 99.6509 95.712 96.8063 95.712 92.4986V65.3655H96.3536C98.0104 65.3655 99.3536 64.0224 99.3536 62.3655V51.4753C99.3536 47.1666 96.2109 44.323 91.974 44.323ZM64.0173 74.5201V94.1182H56.7037V74.5201H64.0173ZM29.3217 71.2692V65.58H90.1794V71.2692H29.3217ZM80.6902 40.8664C80.6902 41.7057 80.3606 42.4752 79.7614 43.0311C78.9772 43.7592 77.7492 44.1439 76.2073 44.1439H65.0012C67.5919 40.7592 71.5357 36.8293 75.3947 36.8293C78.8709 36.8293 80.6902 38.8602 80.6902 40.8664ZM60.7664 21.8754C64.7996 21.8754 68.08 25.1569 68.08 29.19C68.08 31.7561 64.2249 36.9012 60.7664 40.6401C57.3069 36.9021 53.4518 31.7561 53.4518 29.19C53.4518 25.1569 56.7332 21.8754 60.7664 21.8754ZM45.4189 36.667C49.2779 36.667 53.2215 40.5968 55.8122 43.9816H44.6062C43.0654 43.9816 41.8364 43.5968 41.0531 42.8687C40.4539 42.3128 40.1243 41.5434 40.1243 40.7041C40.1243 38.6978 41.9436 36.667 45.4189 36.667Z" fill="#FF7200"/>
</g>
<defs>
<filter id="filter0_d_156_33" x="-2" y="-2" width="128" height="128" filterUnits="userSpaceOnUse" color-interpolation-filters="sRGB">
<feFlood flood-opacity="0" result="BackgroundImageFix"/>
<feColorMatrix in="SourceAlpha" type="matrix" values="0 0 0 0 0 0 0 0 0 0 0 0 0 0 0 0 0 0 127 0" result="hardAlpha"/>
<feOffset dx="2" dy="2"/>
<feGaussianBlur stdDeviation="2"/>
<feColorMatrix type="matrix" values="0 0 0 0 0 0 0 0 0 0 0 0 0 0 0 0 0 0 0.1 0"/>
<feBlend mode="normal" in2="BackgroundImageFix" result="effect1_dropShadow_156_33"/>
<feBlend mode="normal" in="SourceGraphic" in2="effect1_dropShadow_156_33" result="shape"/>
</filter>
</defs>
</svg>
