<svg width="240" height="52" viewBox="0 0 240 52" fill="none" xmlns="http://www.w3.org/2000/svg">
<path fill-rule="evenodd" clip-rule="evenodd" d="M4.78115 25.4018C3.93857 23.9865 3.22887 22.3624 2.95373 20.9324L1.99114 15.9118L5.70172 16.3807L5.14715 14.3293L9.29059 13.7573C9.42687 13.7374 9.58885 13.7166 9.75685 13.6862C9.726 12.1887 9.90001 10.6226 10.1203 9.20214C10.3577 7.66036 10.6817 6.1099 11.1523 4.62184C11.7197 2.82526 12.5529 0.956738 14.4429 0.256476C16.5514 -0.526118 18.3 0.597074 19.7194 2.0756C20.4969 2.88679 21.2049 3.75865 21.9326 4.61491C22.3183 5.06991 22.8112 5.6783 23.292 6.1697L24.6034 5.9747L26.9194 6.4115L30.6549 5.87417L34.3886 6.4115L36.7046 5.9747L38.016 6.1697C38.4969 5.6783 38.9906 5.06991 39.3746 4.61491C40.1032 3.75865 40.8111 2.88679 41.5894 2.0756C43.008 0.597074 44.7566 -0.526118 46.866 0.256476C48.7551 0.956738 49.5883 2.82612 50.1557 4.62184C50.6263 6.11077 50.9503 7.66036 51.1894 9.20214C51.408 10.6226 51.5837 12.1887 51.552 13.6862C51.72 13.7157 51.882 13.7374 52.0191 13.7573L56.1617 14.3293L55.608 16.3807L59.3177 15.9118L58.3552 20.9324C58.08 22.3624 57.3703 23.9865 56.5286 25.4018C56.7317 25.4902 56.9357 25.5768 57.1346 25.6635L61.3114 27.4644L58.6894 31.2144C57.1389 33.4322 55.1623 35.0728 52.6243 36.0071C52.3946 36.0911 52.1623 36.1674 51.9309 36.2367C52.0209 36.5305 52.1057 36.8269 52.1829 37.1268L53.1634 40.9652L49.3089 41.6976C48.234 41.903 47.0254 41.8319 45.8469 41.6516L46.0774 45.1139L41.2474 43.9656C41.1566 43.9448 41.0657 43.9232 40.9749 43.9015C40.068 47.1879 38.4069 50.6632 35.0315 51.4371C31.7589 52.1876 29.4643 52.1876 26.2809 51.4371C23.1343 50.6961 21.2434 47.1879 20.3374 43.9015C20.2466 43.924 20.1557 43.9448 20.0657 43.9656L15.234 45.1139L15.4646 41.6516C14.286 41.8319 13.0783 41.903 12.0026 41.6976L8.14801 40.9652L9.12859 37.1268C9.20659 36.8269 9.29058 36.5305 9.38144 36.2367C9.14915 36.1674 8.91687 36.0903 8.68715 36.0071C6.14829 35.0728 4.17173 33.4322 2.62202 31.2144L0 27.4644L4.17687 25.6635C4.37316 25.5768 4.57886 25.4902 4.78115 25.4018Z" fill="#535554"/>
<path fill-rule="evenodd" clip-rule="evenodd" d="M33.7697 49.826C37.4391 49.2132 38.94 45.1599 39.6214 41.6109C40.3328 41.8371 41.0486 42.0148 41.6631 42.1604L44.0803 42.7358L43.9123 40.2329C43.89 39.9114 43.8677 39.6254 43.8583 39.3558C45.5863 39.771 47.5423 40.1462 48.9677 39.8741L50.8946 39.5084L50.4051 37.5896C50.1643 36.6484 49.8497 35.793 49.524 34.8934C50.3426 34.7495 51.1526 34.5727 51.996 34.2625C54.1817 33.4591 55.8531 32.056 57.1894 30.1424L58.5008 28.2678L56.4128 27.3682C55.1743 26.8335 54.5571 26.5405 53.8868 26.011C55.164 24.3895 56.2517 22.1431 56.5534 20.577L57.0343 18.0672L54.5263 18.3827C54.0608 18.4416 53.5868 18.4875 53.1111 18.5083C53.1763 18.3168 53.2337 18.1201 53.2894 17.9173L53.8397 15.8789L51.768 15.5929C50.9623 15.4811 50.2448 15.3442 49.6251 14.9152C49.8548 13.1688 49.6054 10.971 49.3766 9.48813C49.1546 8.05121 48.846 6.56922 48.408 5.18343C48.0386 4.01517 47.4763 2.45605 46.2343 1.99585C44.8928 1.49839 43.7666 2.46645 42.9051 3.36517C42.1568 4.14257 41.4634 4.9971 40.7649 5.82129C40.3843 6.27022 39.2683 7.59968 38.6023 8.12921L36.7406 7.85361L33.456 8.4724L32.5543 8.17687L30.654 7.73574L28.752 8.17687L27.8503 8.4724L24.5657 7.85361L22.704 8.12921C22.038 7.59968 20.922 6.27022 20.5414 5.82129C19.842 4.9971 19.1494 4.14343 18.4028 3.36517C17.5406 2.46645 16.4143 1.49839 15.0737 1.99585C13.8317 2.45691 13.2694 4.01517 12.9 5.18343C12.4603 6.56922 12.1517 8.05121 11.9306 9.48813C11.7017 10.9719 11.4514 13.1697 11.682 14.9152C11.0623 15.3442 10.344 15.4811 9.53829 15.5929L7.46655 15.8789L8.01684 17.9173C8.07255 18.1209 8.13084 18.3168 8.19513 18.5083C7.71941 18.4884 7.24542 18.4416 6.78085 18.3827L4.27199 18.0672L4.75455 20.577C5.05455 22.1431 6.14314 24.3895 7.42028 26.011C6.75085 26.5405 6.13285 26.8326 4.89342 27.3682L2.80542 28.2678L4.11685 30.1424C5.45313 32.0551 7.12713 33.4591 9.31113 34.2625C10.1563 34.5727 10.9646 34.7487 11.7849 34.8934C11.4574 35.793 11.1446 36.6484 10.9028 37.5896L10.4117 39.5084L12.3403 39.8741C13.7648 40.1462 15.72 39.771 17.448 39.3558C17.4394 39.6262 17.4163 39.9114 17.394 40.2329L17.2269 42.7358L19.644 42.1604C20.2594 42.0148 20.976 41.8371 21.6866 41.6109C22.3697 45.1599 23.8637 49.247 27.5383 49.826C27.5374 49.826 30.804 50.3208 33.7697 49.826Z" fill="#232328"/>
<path fill-rule="evenodd" clip-rule="evenodd" d="M30.8091 48.201H30.726V48.2019L30.654 48.201L30.5811 48.2019V48.201H30.498H30.4851L29.9948 48.1984L30.132 48.2019L30.486 48.1993H30.4988L30.582 48.2001V48.1993H30.6548H30.7269V48.2001L30.81 48.1993H30.8228L31.1751 48.2019L31.3131 48.1984L30.822 48.201H30.8091ZM30.2451 9.63722L30.654 9.59736L31.0628 9.63722L33.3368 10.3782L36.7757 9.72995L38.8688 10.0394C38.94 10.0515 39.0128 10.0316 39.0891 9.99689C40.9903 9.11376 44.6151 3.36954 45.6034 3.73613C46.782 4.17293 48.5614 12.9505 47.6117 15.5435C48.7397 16.9016 50.112 17.2326 51.5211 17.4294C51.294 18.2666 50.94 19.4522 49.6234 20.0579C50.106 20.0857 51.5005 20.6343 54.7543 20.2235C54.4774 21.6665 52.8454 25.0074 51.2374 26.0648C53.004 27.8475 53.4926 28.1248 55.6937 29.0729C52.986 32.9461 49.716 32.953 47.1643 33.4011C47.5277 35.1552 48.1269 36.0816 48.6309 38.0533C47.0117 38.3601 43.4991 37.3522 42.3651 37.074C41.9297 38.3185 41.9974 39.0829 42.0831 40.356C40.1768 39.9019 38.862 39.4495 38.1754 38.9321C37.4263 45.1911 35.6511 47.6316 33.4869 47.9947C32.7137 48.1074 32.2363 48.1637 31.452 48.1932L30.8228 48.1975H30.81L30.6548 48.1967L30.498 48.1975H30.4851L29.8551 48.1932C29.07 48.1637 28.5934 48.1074 27.8194 47.9947C25.6569 47.6316 23.8809 45.1911 23.1309 38.9321C22.4443 39.4495 21.1294 39.9019 19.2231 40.356C19.308 39.0829 19.3766 38.3185 18.9411 37.074C17.808 37.3522 14.2954 38.3592 12.6771 38.0533C13.1794 36.0816 13.7794 35.1552 14.1428 33.4011C11.5903 32.9521 8.32026 32.9461 5.61255 29.0729C7.81369 28.1248 8.30227 27.8475 10.0697 26.0648C8.4617 25.0074 6.82968 21.6673 6.55368 20.2235C9.80654 20.6343 11.2011 20.0857 11.6837 20.0579C10.3671 19.4522 10.0123 18.2666 9.78599 17.4294C11.1986 17.2326 12.5683 16.9016 13.6954 15.5435C12.7465 12.9505 14.5243 4.17206 15.7046 3.73613C16.6928 3.36954 20.316 9.11463 22.2188 9.99689C22.2934 10.0307 22.3663 10.0515 22.4383 10.0394L24.5306 9.72995L27.9694 10.3782L30.2451 9.63722Z" fill="#FDD301"/>
<path fill-rule="evenodd" clip-rule="evenodd" d="M51.2914 30.8973C44.0862 29.0816 42.2399 24.3687 36.8442 21.3467L40.2822 19.0136L44.5397 17.705L39.1671 16.7057L30.4696 19.3984L29.5019 19.1315L22.2659 16.5991L18.6514 17.0307L16.7399 14.156C17.5705 13.233 18.7396 12.5076 19.9834 12.0829L16.3842 7.09616C15.5914 7.35616 14.6656 13.9982 15.3882 15.9153C14.3288 17.1607 12.9231 18.0993 11.6382 18.2102C12.2116 19.1852 13.1939 19.8699 14.0854 20.3968C13.1931 21.1673 9.38479 21.7107 8.37936 21.455C8.89536 22.8009 10.8754 25.3246 12.5648 25.7103C10.9079 27.7209 9.69338 28.5798 7.71338 29.6527C9.67881 31.2795 11.4625 31.5239 15.8417 32.244C15.3488 33.8491 14.7419 35.8858 14.3554 36.7992C15.6934 36.6761 18.6985 35.8268 19.9971 35.0962C20.1857 36.287 20.4402 37.4232 20.5062 38.4623C22.6002 37.6797 22.9114 37.3807 23.9271 36.6293C24.3025 38.7995 25.3782 43.0574 25.8977 44.3998C25.9079 44.4302 25.9199 44.4596 25.9319 44.4874L25.9396 44.5056C26.2602 45.283 27.4397 46.0976 28.3345 46.1704C28.5719 46.1903 29.5525 45.7171 30.5082 45.7206H30.5254H30.5588H30.5759C31.5334 45.718 32.4642 46.1912 32.7042 46.1704C33.5982 46.0967 34.7751 45.283 35.0974 44.5056L35.1034 44.4874C35.1179 44.4579 35.1291 44.4302 35.1394 44.3998C35.6579 43.0582 36.7354 38.7995 37.1108 36.6293C38.1265 37.3807 38.4385 37.6797 40.5317 38.4623C40.5985 37.4232 40.8505 36.287 41.0399 35.0962C42.3385 35.8268 45.3428 36.6761 46.68 36.7992C46.2959 35.8858 45.6874 33.8491 45.1945 32.244C48.0985 31.7665 49.8599 31.4979 51.2914 30.8973ZM46.7682 14.8805C46.0457 13.1758 45.0385 11.5499 43.6696 10.5021L45.1688 7.35356C46.7451 9.85821 46.5702 14.4134 46.7682 14.8805Z" fill="#232328"/>
<path fill-rule="evenodd" clip-rule="evenodd" d="M33.8769 24.8965C32.1592 23.3391 28.6552 23.515 27.1955 25.0109L30.6146 28.1915L33.8769 24.8965ZM34.0184 21.3085C37.5952 22.9075 39.6978 25.5257 36.6584 31.1139C33.2606 30.6364 27.9155 30.6364 24.5195 31.1139C21.4801 25.5257 23.5827 22.9075 27.1578 21.3085L25.5403 25.4876L30.5881 30.2533L35.6367 25.4876L34.0184 21.3085Z" fill="#FDD301"/>
<path fill-rule="evenodd" clip-rule="evenodd" d="M22.512 18.101C22.2 18.101 21.9446 18.3575 21.9446 18.673C21.9446 18.9893 22.2 19.2459 22.512 19.2459C22.824 19.2459 23.0777 18.9902 23.0777 18.673C23.0777 18.3575 22.8249 18.101 22.512 18.101ZM37.7288 18.101C37.4203 18.101 37.17 18.3532 37.17 18.6661C37.17 18.9798 37.4203 19.232 37.7288 19.232C38.0374 19.232 38.2886 18.9798 38.2886 18.6661C38.2894 18.3541 38.0383 18.101 37.7288 18.101ZM31.2489 35.2895C31.0277 35.8138 30.7612 36.3763 30.5717 36.9067C30.3832 36.3763 30.1174 35.813 29.8946 35.2895C29.0717 35.1664 28.5951 35.3502 28.4683 35.8389C28.4374 36.6813 28.7863 37.5194 28.7546 38.3601C28.5831 39.433 28.5677 40.5735 29.73 40.7902C29.94 40.7945 30.3497 40.7954 30.5683 40.7945H30.5777C30.7963 40.7954 31.2051 40.7954 31.416 40.7902C32.5766 40.5735 32.562 39.433 32.3897 38.3601C32.358 37.5203 32.7077 36.6813 32.6769 35.8389C32.5491 35.3502 32.0726 35.1664 31.2489 35.2895Z" fill="#F04E33"/>
<path fill-rule="evenodd" clip-rule="evenodd" d="M29.2354 34.0094L29.3186 33.6429L29.5449 34.0051L30.2777 33.999L30.45 33.5059L30.6797 33.9964H31.464L31.6534 33.6073L31.7554 34.0276L32.6649 34.0519L32.7112 32.8611C31.188 32.7658 29.7823 32.7641 28.29 32.8915L28.3843 34.0753L29.2354 34.0094ZM27.0523 37.7543L27.1963 32.9877C26.5029 32.9929 25.854 33.0319 25.2583 33.1671C25.3714 34.929 26.1771 36.1848 27.0523 37.7543ZM34.1271 32.9877L34.2677 37.7543C35.1454 36.1848 35.9512 34.929 36.0643 33.1671C35.4669 33.0319 34.8197 32.9929 34.1271 32.9877ZM32.4472 42.3216H28.8566L27.6917 40.59C27.444 41.5624 27.4312 42.6258 27.8812 43.6302C29.61 42.9863 31.4632 42.9958 33.4457 43.6666C33.8049 42.7376 33.8314 41.7912 33.588 40.8309L32.4472 42.3216Z" fill="white"/>
<path fill-rule="evenodd" clip-rule="evenodd" d="M89.5337 12.0699V7.51045H91.1117C92.0117 7.51045 92.6889 7.73838 93.0643 8.03998C93.4389 8.34591 93.6651 8.95517 93.6651 9.7915C93.6651 10.6252 93.4389 11.1582 92.9872 11.5361C92.6117 11.9165 91.8617 12.0691 90.96 12.0691H89.5337V12.0699ZM177.743 13.4384C177.82 10.7006 177.068 8.49757 175.564 6.82405C174.061 5.2294 172.034 4.3922 169.402 4.3168C166.7 4.3168 164.67 5.0786 163.092 6.67325C161.589 8.26877 160.764 10.3982 160.764 13.2096C160.687 16.0202 161.439 18.2267 162.94 19.8968C164.444 21.4949 166.473 22.3321 169.102 22.4066C171.734 22.4066 173.838 21.6474 175.415 20.0502C176.918 18.4555 177.743 16.249 177.743 13.4384ZM221.849 21.7991L220.047 19.3672L214.713 4.7718H209.378L204.119 19.4435L202.389 21.8745V22.3321L210.055 22.2567V21.8745L208.176 19.4435L208.852 17.2378H214.561L215.239 19.4435L213.51 21.8745V22.2567H221.849V21.7991ZM127.777 21.8745L125.898 19.4435L129.279 8.57297L132.661 19.3672L130.781 21.8745V22.2567L139.122 22.1787V21.7999L137.468 19.3681L132.134 4.77267H127.025L121.763 19.5189L120.185 21.9507V22.3329L127.775 22.2575V21.8745H127.777ZM147.464 19.4426V13.3604L151.971 19.4426L150.693 21.949V22.3312H159.71V21.949L157.231 19.518L151.971 12.9054L156.704 7.65951L159.186 5.22853V4.84893H150.693V5.22853L151.896 7.65951L147.464 12.752V7.65951L149.041 5.22853V4.84893H141.528V5.22853L143.106 7.65951V19.4426L141.528 21.8736V22.3312H149.041V21.949L147.464 19.4426ZM182.972 23.2438L180.901 25.446H179.472V21.1153H179.473V20.3544H181.605C184.22 15.3485 185.789 10.1997 185.934 4.8498L189.196 4.82466L193.747 4.7718V4.79L196.153 4.7718V4.7926L197.73 4.7718V5.1514L196.155 7.65604L196.224 20.3544H198.933V23.2438V25.3706H197.504L195.453 23.2438H182.972ZM185.854 20.3544H191.865L191.808 8.57211H191.796V8.19337H189.472C189.06 12.3499 187.843 16.814 185.854 20.3544ZM118.535 13.3613C118.535 10.6252 117.783 8.42217 116.204 6.74952C114.704 5.1514 112.674 4.3168 110.043 4.3168C107.339 4.3168 105.309 5.1514 103.732 6.74952C102.232 8.34677 101.479 10.5507 101.479 13.3613C101.479 16.0991 102.232 18.3021 103.809 19.9756C105.309 21.5711 107.339 22.4075 110.043 22.4075C112.6 22.4075 114.704 21.5711 116.281 19.9756C117.783 18.3012 118.535 16.0991 118.535 13.3613ZM230.413 12.0699L230.491 7.51045H232.069C232.971 7.51045 233.646 7.73838 234.021 8.03998C234.397 8.34591 234.622 8.95517 234.622 9.7915C234.622 10.6252 234.396 11.1582 233.946 11.5361C233.497 11.9165 232.818 12.0691 231.916 12.0691H230.413V12.0699ZM233.497 22.3312C235.376 22.3312 236.876 21.949 237.855 21.1153C238.832 20.3535 239.355 19.2138 239.355 17.6192C239.355 16.3279 239.059 15.3364 238.379 14.5763C237.63 13.8934 236.653 13.4375 235.376 13.4375C236.575 13.285 237.478 12.83 238.154 12.1445C238.755 11.3853 239.059 10.471 239.059 9.33303C239.133 7.81118 238.605 6.67239 237.705 5.98686C236.802 5.22853 235.451 4.8498 233.647 4.8498H224.556V5.22853L226.135 7.65951L226.058 19.4426L224.479 21.8745V22.2567L233.497 22.3312ZM230.413 14.7289H232.218C233.119 14.7289 233.794 14.9585 234.247 15.3364C234.698 15.7186 234.924 16.3278 234.924 17.237C234.924 17.9979 234.623 18.6054 234.173 19.063C233.721 19.4426 233.046 19.6714 232.219 19.6714L230.414 19.5952V14.7289H230.413ZM113.727 13.3613C113.727 15.3381 113.425 16.8574 112.823 17.9234C112.225 18.9885 111.246 19.5189 110.044 19.5189C108.769 19.5189 107.793 18.9885 107.192 17.9234C106.591 16.8574 106.287 15.3381 106.287 13.3613C106.287 11.3862 106.591 9.7915 107.192 8.8009C107.793 7.65951 108.77 7.13085 110.044 7.13085C111.246 7.13085 112.225 7.65951 112.823 8.8009C113.424 9.7915 113.727 11.3862 113.727 13.3613ZM213.51 14.5755H209.902L211.706 8.34591L213.51 14.5755ZM172.935 13.4384C172.935 15.4127 172.635 16.9354 171.958 17.9988C171.358 19.0639 170.456 19.596 169.179 19.518C167.901 19.518 167.001 18.9876 166.398 17.9225C165.797 16.8574 165.571 15.2619 165.571 13.285C165.571 11.3073 165.946 9.79063 166.548 8.72637C167.149 7.66038 168.051 7.13085 169.329 7.13085C170.605 7.20278 171.507 7.73838 172.108 8.8009C172.709 9.8643 173.009 11.3862 172.935 13.4384ZM92.5372 22.3312C94.4923 22.3312 95.9186 21.949 96.8949 21.1153C97.9457 20.3535 98.3983 19.2138 98.3983 17.6192C98.3983 16.3279 98.0983 15.3364 97.422 14.5763C96.7457 13.8934 95.6923 13.4375 94.4923 13.4375C95.6177 13.285 96.5186 12.83 97.1949 12.1445C97.7966 11.3853 98.172 10.471 98.172 9.33303C98.172 7.81118 97.6474 6.67239 96.7457 5.98686C95.844 5.22853 94.4923 4.8498 92.6889 4.8498H83.5954V5.22853L85.176 7.65951L85.0989 19.4426L83.5217 21.8745V22.2567L92.5372 22.3312ZM89.4566 14.7289H91.26C92.1617 14.7289 92.8372 14.9585 93.2897 15.3364C93.7397 15.7186 93.9651 16.3278 93.9651 17.237C93.9651 17.9979 93.6643 18.6054 93.2117 19.063C92.7626 19.4426 92.0863 19.6714 91.2592 19.6714L89.4557 19.5952V14.7289H89.4566Z" fill="#232328"/>
<path fill-rule="evenodd" clip-rule="evenodd" d="M215.087 38.5768H220.229V39.7511H218.418V45.2734H216.922V39.7511H215.087V38.5768ZM85.332 45.2734V38.5768H89.4378V39.7511H86.8277V45.2734H85.332ZM91.8575 47.5354H90.3352V38.5768H91.7657V39.7441C92.2243 38.8723 92.9006 38.4355 93.792 38.4355C94.5266 38.4355 95.1129 38.7588 95.5492 39.4044C95.988 40.0492 96.2049 40.876 96.2049 41.8787C96.2049 42.8295 95.9966 43.6554 95.58 44.36C95.1609 45.062 94.5394 45.4147 93.7132 45.4147C92.8603 45.4147 92.2423 45.055 91.8575 44.3392V47.5354ZM91.8575 42.5279C91.8575 43.0141 92.0006 43.4171 92.2869 43.7394C92.5732 44.0584 92.8912 44.2187 93.2409 44.2187C93.7175 44.2187 94.0672 44.0081 94.2883 43.5852C94.5077 43.164 94.6175 42.6275 94.6175 41.9784C94.6175 41.2972 94.5077 40.7451 94.284 40.317C94.0603 39.8915 93.7286 39.6765 93.288 39.6765C92.8894 39.6765 92.5517 39.8507 92.274 40.2017C91.9963 40.5501 91.8575 41.0077 91.8575 41.5737V42.5279ZM102.323 38.5768L99.7466 46.2025C99.5897 46.6714 99.3729 47.0354 99.0994 47.2936C98.826 47.5519 98.4412 47.681 97.9423 47.681C97.7452 47.681 97.4606 47.6672 97.0852 47.636V46.4365L97.7992 46.4495C98.1146 46.4495 98.3477 46.3975 98.4977 46.2935C98.6477 46.1895 98.766 46.004 98.856 45.7388C98.9434 45.4736 98.9863 45.3202 98.9863 45.2743C98.9863 45.2474 98.9417 45.1114 98.85 44.8626L96.5718 38.5768H98.1386L99.7458 42.9933L101.129 38.5768H102.323ZM103.305 45.2734V38.5768H108.6V45.2743H107.104V39.6696H104.8V45.2743H103.305V45.2734ZM110.389 45.2734V38.5768H115.683V45.2743H114.188V39.6696H111.884V45.2743H110.389V45.2734ZM123.147 45.2734H121.723C121.595 44.8661 121.519 44.4154 121.492 43.9197C121.096 44.9155 120.348 45.4138 119.249 45.4138C118.589 45.4138 118.06 45.2171 117.66 44.8254C117.26 44.4336 117.06 43.9422 117.06 43.3494C117.06 41.812 118.396 41.0433 121.067 41.0433C121.173 41.0433 121.313 41.0459 121.492 41.0502V40.5458C121.492 39.8507 121.024 39.5049 120.088 39.5049C119.18 39.5049 118.665 39.8516 118.541 40.5458L117.27 40.3534C117.339 39.797 117.624 39.3368 118.12 38.9771C118.62 38.6175 119.341 38.4364 120.285 38.4364C120.798 38.4364 121.215 38.4814 121.539 38.5681C121.862 38.6539 122.135 38.7986 122.359 39.0049C122.583 39.2103 122.737 39.433 122.823 39.6748C122.907 39.9149 122.95 40.3222 122.95 40.8968V43.9206C122.949 44.36 123.015 44.8098 123.147 45.2734ZM121.492 41.8649C119.56 41.8649 118.593 42.3311 118.593 43.2637C118.593 43.5418 118.692 43.7793 118.887 43.976C119.081 44.1736 119.374 44.2724 119.769 44.2724C120.337 44.2724 120.767 44.0896 121.058 43.7247C121.347 43.3599 121.492 42.9465 121.492 42.4819V41.8649ZM130.689 45.4138C129.708 45.4138 128.961 45.0559 128.445 44.3452C127.928 43.6328 127.671 42.8173 127.671 41.8987C127.671 40.9072 127.955 40.0839 128.526 39.4252C129.097 38.7666 129.851 38.4364 130.787 38.4364C131.673 38.4364 132.404 38.7579 132.975 39.3983C133.543 40.0388 133.83 40.8743 133.83 41.8995C133.83 42.9569 133.534 43.8053 132.941 44.4484C132.347 45.0906 131.597 45.4138 130.689 45.4138ZM130.74 44.1676C131.745 44.1676 132.249 43.4093 132.249 41.8926C132.249 41.2071 132.128 40.6654 131.888 40.2719C131.646 39.8759 131.277 39.6765 130.779 39.6765C130.263 39.6765 129.879 39.8828 129.631 40.2893C129.382 40.6992 129.257 41.2426 129.257 41.9195C129.257 42.6483 129.389 43.2047 129.653 43.5895C129.918 43.9752 130.281 44.1676 130.74 44.1676ZM140.053 45.2734H138.349L136.945 42.8338L135.409 45.2734H134.124L136.327 41.8259L134.42 38.5759H136.131L137.221 40.5449L138.461 38.5759H139.713L137.843 41.4801L140.053 45.2734ZM142.473 47.5354H140.95V38.5768H142.381V39.7441C142.84 38.8723 143.516 38.4355 144.407 38.4355C145.142 38.4355 145.728 38.7588 146.164 39.4044C146.603 40.0492 146.82 40.876 146.82 41.8787C146.82 42.8295 146.612 43.6554 146.196 44.36C145.778 45.062 145.155 45.4147 144.329 45.4147C143.476 45.4147 142.858 45.055 142.473 44.3392V47.5354H142.473ZM142.473 42.5279C142.473 43.0141 142.616 43.4171 142.902 43.7394C143.188 44.0584 143.506 44.2187 143.856 44.2187C144.333 44.2187 144.682 44.0081 144.904 43.5852C145.124 43.164 145.233 42.6275 145.233 41.9784C145.233 41.2972 145.124 40.7451 144.9 40.317C144.676 39.8915 144.345 39.6765 143.904 39.6765C143.505 39.6765 143.168 39.8507 142.89 40.2017C142.612 40.5501 142.473 41.0077 142.473 41.5737V42.5279H142.473ZM153.852 45.2734H152.428C152.301 44.8661 152.224 44.4154 152.198 43.9197C151.802 44.9155 151.053 45.4138 149.955 45.4138C149.295 45.4138 148.766 45.2171 148.365 44.8254C147.964 44.4336 147.765 43.9422 147.765 43.3494C147.765 41.812 149.102 41.0433 151.773 41.0433C151.878 41.0433 152.019 41.0459 152.198 41.0502V40.5458C152.198 39.8507 151.73 39.5049 150.795 39.5049C149.885 39.5049 149.371 39.8516 149.247 40.5458L147.975 40.3534C148.045 39.797 148.329 39.3368 148.827 38.9771C149.325 38.6175 150.046 38.4364 150.992 38.4364C151.504 38.4364 151.921 38.4814 152.246 38.5681C152.568 38.6539 152.841 38.7986 153.065 39.0049C153.29 39.2103 153.444 39.433 153.529 39.6748C153.614 39.9149 153.657 40.3222 153.657 40.8968V43.9206C153.655 44.36 153.719 44.8098 153.852 45.2734ZM152.198 41.8649C150.266 41.8649 149.299 42.3311 149.299 43.2637C149.299 43.5418 149.397 43.7793 149.592 43.976C149.787 44.1736 150.08 44.2724 150.474 44.2724C151.042 44.2724 151.473 44.0896 151.763 43.7247C152.052 43.3599 152.198 42.9465 152.198 42.4819V41.8649ZM155.437 45.2734V38.5768H156.932V41.1568H159.525V38.5768H161.02V45.2743H159.525V42.3294H156.932V45.2743H155.437V45.2734ZM162.808 45.2734V38.5768H164.304V41.1568H166.896V38.5768H168.392V45.2743H166.896V42.3294H164.304V45.2743H162.808V45.2734ZM170.254 45.2734V38.5768H171.75V41.0233H173.494C174.251 41.0233 174.806 41.2296 175.164 41.6413C175.52 42.0512 175.697 42.5625 175.697 43.1709C175.697 43.8435 175.504 44.3617 175.117 44.7266C174.729 45.0914 174.188 45.2743 173.494 45.2743H170.254V45.2734ZM171.75 44.0991H173.199C173.565 44.0991 173.83 44.0272 173.989 43.8772C174.148 43.7299 174.229 43.4898 174.229 43.1571C174.229 42.4689 173.886 42.1223 173.199 42.1223H171.751V44.0991H171.75ZM176.556 45.2734V38.5768H178.052V45.2743H176.556V45.2734ZM184.938 45.2734H183.234L181.83 42.8338L180.294 45.2734H179.009L181.212 41.8259L179.305 38.5759H181.016L182.106 40.5449L183.346 38.5759H184.598L182.728 41.4801L184.938 45.2734ZM194.861 45.2734H193.437C193.31 44.8661 193.234 44.4154 193.207 43.9197C192.811 44.9155 192.063 45.4138 190.964 45.4138C190.304 45.4138 189.775 45.2171 189.375 44.8254C188.974 44.4336 188.775 43.9422 188.775 43.3494C188.775 41.812 190.111 41.0433 192.782 41.0433C192.887 41.0433 193.028 41.0459 193.207 41.0502V40.5458C193.207 39.8507 192.739 39.5049 191.803 39.5049C190.894 39.5049 190.379 39.8516 190.256 40.5458L188.984 40.3534C189.053 39.797 189.338 39.3368 189.834 38.9771C190.334 38.6175 191.055 38.4364 191.999 38.4364C192.513 38.4364 192.928 38.4814 193.253 38.5681C193.575 38.6539 193.849 38.7986 194.073 39.0049C194.296 39.2103 194.451 39.433 194.536 39.6748C194.621 39.9149 194.664 40.3222 194.664 40.8968V43.9206C194.664 44.36 194.729 44.8098 194.861 45.2734ZM193.207 41.8649C191.275 41.8649 190.308 42.3311 190.308 43.2637C190.308 43.5418 190.407 43.7793 190.601 43.976C190.796 44.1736 191.089 44.2724 191.483 44.2724C192.051 44.2724 192.482 44.0896 192.772 43.7247C193.061 43.3599 193.207 42.9465 193.207 42.4819V41.8649ZM196.447 45.2734V38.5768H200.553V39.7511H197.942V45.2734H196.447ZM205.66 43.1397L207.013 43.3252C206.838 43.9301 206.496 44.4293 205.989 44.8236C205.481 45.2171 204.845 45.4138 204.08 45.4138C203.162 45.4138 202.424 45.1018 201.863 44.477C201.303 43.8547 201.024 43.0097 201.024 41.9437C201.024 40.9323 201.306 40.0943 201.87 39.4313C202.434 38.7683 203.2 38.4355 204.165 38.4355C205.109 38.4355 205.839 38.764 206.356 39.4183C206.871 40.0726 207.129 40.9124 207.129 41.9377L207.124 42.1119H202.577C202.577 42.5669 202.619 42.9309 202.705 43.2047C202.791 43.4786 202.96 43.7169 203.213 43.9197C203.469 44.1234 203.784 44.2256 204.165 44.2256C204.904 44.2256 205.403 43.8634 205.66 43.1397ZM205.569 41.136C205.564 40.6541 205.421 40.2598 205.138 39.9547C204.856 39.6514 204.509 39.4971 204.093 39.4971C203.681 39.4971 203.339 39.6393 203.063 39.9253C202.788 40.2104 202.627 40.6134 202.577 41.136H205.569ZM208.486 45.2734V38.5768H209.982V41.1568H212.574V38.5768H214.07V45.2743H212.574V42.3294H209.982V45.2743H208.486V45.2734ZM224.919 42.8139L226.206 42.9473C226.038 43.7871 225.717 44.4076 225.241 44.8098C224.764 45.2128 224.189 45.4138 223.515 45.4138C222.602 45.4138 221.899 45.0767 221.409 44.4024C220.917 43.7282 220.67 42.9014 220.67 41.9238C220.67 40.9167 220.939 40.0839 221.475 39.4252C222.015 38.7666 222.731 38.4364 223.627 38.4364C225.071 38.4364 225.93 39.2059 226.206 40.7451L224.919 40.9237C224.806 40.0925 224.402 39.6765 223.706 39.6765C223.2 39.6765 222.831 39.9001 222.602 40.3508C222.371 40.7989 222.257 41.3423 222.257 41.9784C222.257 42.6553 222.376 43.1761 222.615 43.5427C222.853 43.9093 223.186 44.0948 223.614 44.0948C224.269 44.0948 224.706 43.6666 224.919 42.8139ZM228.455 45.2734V39.7511H226.62V38.5768H231.762V39.7511H229.951V45.2734H228.455ZM232.586 45.2734V38.5768H236.029C236.826 38.5768 237.372 38.7466 237.669 39.0881C237.967 39.4278 238.115 39.8126 238.115 40.2399C238.115 40.9826 237.689 41.4827 236.837 41.7383C237.851 41.9923 238.359 42.5513 238.359 43.4179C238.359 43.9656 238.183 44.412 237.833 44.756C237.484 45.1027 236.989 45.2743 236.351 45.2743H232.586V45.2734ZM234.081 41.3284H235.794C236.376 41.3284 236.667 41.045 236.667 40.4791C236.667 39.9452 236.376 39.6757 235.794 39.6757H234.081V41.3284ZM234.081 44.0991H235.794C236.17 44.0991 236.437 44.0246 236.593 43.8703C236.752 43.7187 236.83 43.4829 236.83 43.164C236.83 42.5374 236.485 42.2219 235.794 42.2219H234.081V44.0991Z" fill="#232328"/>
</svg>
