<svg width="32" height="32" viewBox="0 0 32 32" fill="none" xmlns="http://www.w3.org/2000/svg">
<path d="M10.6663 9.31067C10.3127 9.31067 9.97358 9.45114 9.72353 9.70119C9.47348 9.95124 9.33301 10.2904 9.33301 10.644C9.33301 10.9976 9.47348 11.3368 9.72353 11.5868C9.97358 11.8369 10.3127 11.9773 10.6663 11.9773H21.333C21.6866 11.9773 22.0258 11.8369 22.2758 11.5868C22.5259 11.3368 22.6663 10.9976 22.6663 10.644C22.6663 10.2904 22.5259 9.95124 22.2758 9.70119C22.0258 9.45114 21.6866 9.31067 21.333 9.31067H10.6663Z" fill="#535554"/>
<path d="M9.33301 16C9.33301 15.6464 9.47348 15.3072 9.72353 15.0572C9.97358 14.8071 10.3127 14.6667 10.6663 14.6667H21.333C21.6866 14.6667 22.0258 14.8071 22.2758 15.0572C22.5259 15.3072 22.6663 15.6464 22.6663 16C22.6663 16.3536 22.5259 16.6928 22.2758 16.9428C22.0258 17.1928 21.6866 17.3333 21.333 17.3333H10.6663C10.3127 17.3333 9.97358 17.1928 9.72353 16.9428C9.47348 16.6928 9.33301 16.3536 9.33301 16Z" fill="#535554"/>
<path d="M10.6663 20.0226C10.3127 20.0226 9.97358 20.1631 9.72353 20.4132C9.47348 20.6632 9.33301 21.0024 9.33301 21.356C9.33301 21.7096 9.47348 22.0487 9.72353 22.2988C9.97358 22.5488 10.3127 22.6893 10.6663 22.6893H21.333C21.6866 22.6893 22.0258 22.5488 22.2758 22.2988C22.5259 22.0487 22.6663 21.7096 22.6663 21.356C22.6663 21.0024 22.5259 20.6632 22.2758 20.4132C22.0258 20.1631 21.6866 20.0226 21.333 20.0226H10.6663Z" fill="#535554"/>
<path fill-rule="evenodd" clip-rule="evenodd" d="M29.3332 16C29.3332 23.364 23.3638 29.3333 15.9998 29.3333C8.63584 29.3333 2.6665 23.364 2.6665 16C2.6665 8.63599 8.63584 2.66666 15.9998 2.66666C23.3638 2.66666 29.3332 8.63599 29.3332 16ZM26.6665 16C26.6665 18.829 25.5427 21.5421 23.5423 23.5425C21.5419 25.5429 18.8288 26.6667 15.9998 26.6667C13.1709 26.6667 10.4578 25.5429 8.45737 23.5425C6.45698 21.5421 5.33317 18.829 5.33317 16C5.33317 13.171 6.45698 10.4579 8.45737 8.45752C10.4578 6.45713 13.1709 5.33332 15.9998 5.33332C18.8288 5.33332 21.5419 6.45713 23.5423 8.45752C25.5427 10.4579 26.6665 13.171 26.6665 16Z" fill="#535554"/>
</svg>
