<svg width="21" height="21" viewBox="0 0 21 21" fill="none" xmlns="http://www.w3.org/2000/svg">
<path d="M20.041 1.87525L15.979 0.938247C15.538 0.836247 15.084 1.06725 14.905 1.48125L13.03 5.85625C12.866 6.23925 12.975 6.68825 13.3 6.95025L15.667 8.88725C14.261 11.8832 11.804 14.3752 8.74496 15.8092L6.80697 13.4422C6.54097 13.1182 6.09598 13.0082 5.71298 13.1722L1.33798 15.0472C0.91998 15.2312 0.689983 15.6842 0.790983 16.1252L1.72897 20.1872C1.82697 20.6092 2.20203 20.9142 2.64303 20.9142C12.647 20.9142 20.768 12.8092 20.768 2.78925C20.768 2.35125 20.467 1.97225 20.041 1.87525Z" fill="#535554"/>
</svg>
