<svg width="21" height="21" viewBox="0 0 21 21" fill="none" xmlns="http://www.w3.org/2000/svg">
<path d="M20.041 1.56781L15.979 0.630813C15.538 0.528813 15.084 0.759812 14.905 1.17381L13.03 5.54881C12.866 5.93181 12.975 6.38081 13.3 6.64281L15.667 8.57981C14.261 11.5758 11.804 14.0678 8.74496 15.5018L6.80697 13.1348C6.54097 12.8108 6.09598 12.7008 5.71298 12.8648L1.33798 14.7398C0.91998 14.9238 0.689983 15.3768 0.790983 15.8178L1.72897 19.8798C1.82697 20.3018 2.20203 20.6068 2.64303 20.6068C12.647 20.6068 20.768 12.5018 20.768 2.48181C20.768 2.04381 20.467 1.66481 20.041 1.56781Z" fill="white"/>
</svg>
